<svg xmlns="http://www.w3.org/2000/svg" viewBox="0 0 80 80" width="80" height="80" preserveAspectRatio="xMidYMid meet" style="width: 100%; height: 100%; transform: translate3d(0px, 0px, 0px);"><defs><clipPath id="__lottie_element_4865"><rect width="80" height="80" x="0" y="0"></rect></clipPath><clipPath id="__lottie_element_4867"><path d="M0,0 L64,0 L64,64 L0,64z"></path></clipPath><linearGradient id="__lottie_element_4873" spreadMethod="pad" gradientUnits="userSpaceOnUse" x1="0" y1="-2.549999952316284" x2="-2.921999931335449" y2="26.238000869750977"><stop offset="0%" stop-color="rgb(255,214,47)"></stop><stop offset="50%" stop-color="rgb(253,185,29)"></stop><stop offset="100%" stop-color="rgb(251,157,11)"></stop></linearGradient></defs><g clip-path="url(#__lottie_element_4865)"><g transform="matrix(1,0,0,1,40,40)" opacity="1" style="display: block;"><g opacity="1" transform="matrix(1,0,0,1,0,0)"><path fill="rgb(24,34,66)" fill-opacity="1" d=" M30,0.49000000953674316 C29.760000228881836,26.15999984741211 20.850000381469727,28 0.07999999821186066,28 C-21.280000686645508,28 -30.34000015258789,25.6299991607666 -29.989999771118164,-0.699999988079071 C-29.65999984741211,-26.049999237060547 -20.920000076293945,-28 -0.33000001311302185,-28 C21.010000228881836,-28 30.239999771118164,-25.979999542236328 30,0.49000000953674316z"></path></g></g><g clip-path="url(#__lottie_element_4867)" transform="matrix(0.9287233352661133,-0.14709532260894775,0.14709532260894775,0.9287233352661133,2.573802947998047,14.987903594970703)" opacity="1" style="display: block;"><g transform="matrix(0.4694715738296509,-0.882947564125061,0.882947564125061,0.4694715738296509,31.202312469482422,30.968582153320312)" opacity="1" style="display: block;"><g opacity="1" transform="matrix(1,0,0,1,0,0)"><path fill="rgb(215,130,80)" fill-opacity="1" d=" M4.169000148773193,-0.4580000042915344 C4.059000015258789,-0.2680000066757202 4.129000186920166,-0.02800000086426735 4.309000015258789,0.0820000022649765 C4.499000072479248,0.18199999630451202 4.738999843597412,0.12200000137090683 4.848999977111816,-0.06800000369548798 C4.848999977111816,-0.06800000369548798 10.609000205993652,-10.04800033569336 10.609000205993652,-10.04800033569336 C11.258999824523926,-11.168000221252441 12.689000129699707,-11.54800033569336 13.809000015258789,-10.907999992370605 C14.928999900817871,-10.258000373840332 15.309000015258789,-8.82800006866455 14.668999671936035,-7.708000183105469 C14.668999671936035,-7.708000183105469 7.828999996185303,4.131999969482422 7.828999996185303,4.131999969482422 C7.828999996185303,4.131999969482422 7.7789998054504395,4.2220001220703125 7.7789998054504395,4.2220001220703125 C7.7789998054504395,4.2220001220703125 7.7789998054504395,4.2220001220703125 7.7789998054504395,4.2220001220703125 C7.7789998054504395,4.2220001220703125 7.729000091552734,4.302000045776367 7.729000091552734,4.302000045776367 C7.729000091552734,4.302000045776367 6.328999996185303,6.73199987411499 6.328999996185303,6.73199987411499 C6.328999996185303,6.73199987411499 6.328999996185303,6.73199987411499 6.328999996185303,6.73199987411499 C6.328999996185303,6.73199987411499 6.158999919891357,7.052000045776367 6.158999919891357,7.052000045776367 C6.129000186920166,7.1020002365112305 6.098999977111816,7.1519999504089355 6.078999996185303,7.202000141143799 C6.078999996185303,7.202000141143799 5.939000129699707,7.4720001220703125 5.939000129699707,7.4720001220703125 C5.578999996185303,8.241999626159668 5.609000205993652,8.621999740600586 6.178999900817871,8.751999855041504 C6.298999786376953,8.781999588012695 6.468999862670898,8.67199993133545 6.698999881744385,8.472000122070312 C6.698999881744385,8.472000122070312 6.89900016784668,8.281999588012695 6.89900016784668,8.281999588012695 C6.89900016784668,8.281999588012695 6.89900016784668,8.281999588012695 6.89900016784668,8.281999588012695 C6.89900016784668,8.281999588012695 7.798999786376953,7.392000198364258 7.798999786376953,7.392000198364258 C7.798999786376953,7.392000198364258 7.798999786376953,7.392000198364258 7.798999786376953,7.392000198364258 C7.798999786376953,7.392000198364258 8.098999977111816,7.1020002365112305 8.098999977111816,7.1020002365112305 C8.14900016784668,7.052000045776367 8.199000358581543,7.001999855041504 8.258999824523926,6.961999893188477 C8.258999824523926,6.961999893188477 8.58899974822998,6.6620001792907715 8.58899974822998,6.6620001792907715 C8.758999824523926,6.521999835968018 8.928999900817871,6.372000217437744 9.109000205993652,6.23199987411499 C10.359000205993652,5.291999816894531 11.878999710083008,4.6620001792907715 13.48900032043457,5.581999778747559 C15.298999786376953,6.631999969482422 15.029000282287598,8.161999702453613 13.939000129699707,8.991999626159668 C13.939000129699707,8.991999626159668 13.758999824523926,9.131999969482422 13.758999824523926,9.131999969482422 C13.758999824523926,9.131999969482422 13.758999824523926,9.131999969482422 13.758999824523926,9.131999969482422 C13.758999824523926,9.131999969482422 13.329000473022461,9.432000160217285 13.329000473022461,9.432000160217285 C13.329000473022461,9.432000160217285 13.329000473022461,9.432000160217285 13.329000473022461,9.432000160217285 C13.329000473022461,9.432000160217285 12.019000053405762,10.321999549865723 12.019000053405762,10.321999549865723 C12.019000053405762,10.321999549865723 12.019000053405762,10.321999549865723 12.019000053405762,10.321999549865723 C12.019000053405762,10.321999549865723 11.449000358581543,10.711999893188477 11.449000358581543,10.711999893188477 C11.168999671936035,10.911999702453613 10.89900016784668,11.121999740600586 10.638999938964844,11.321999549865723 C10.638999938964844,11.321999549865723 10.309000015258789,11.60200023651123 10.309000015258789,11.60200023651123 C10.309000015258789,11.60200023651123 10.309000015258789,11.60200023651123 10.309000015258789,11.60200023651123 C10.309000015258789,11.60200023651123 9.958999633789062,11.892000198364258 9.958999633789062,11.892000198364258 C9.958999633789062,11.892000198364258 9.958999633789062,11.892000198364258 9.958999633789062,11.892000198364258 C9.958999633789062,11.892000198364258 9.23900032043457,12.522000312805176 9.23900032043457,12.522000312805176 C9.23900032043457,12.522000312805176 9.23900032043457,12.522000312805176 9.23900032043457,12.522000312805176 C9.23900032043457,12.522000312805176 8.08899974822998,13.531999588012695 8.08899974822998,13.531999588012695 C8.08899974822998,13.531999588012695 8.08899974822998,13.531999588012695 8.08899974822998,13.531999588012695 C8.08899974822998,13.531999588012695 7.479000091552734,14.062000274658203 7.479000091552734,14.062000274658203 C7.479000091552734,14.062000274658203 7.479000091552734,14.062000274658203 7.479000091552734,14.062000274658203 C7.479000091552734,14.062000274658203 7.059000015258789,14.411999702453613 7.059000015258789,14.411999702453613 C7.059000015258789,14.411999702453613 7.059000015258789,14.411999702453613 7.059000015258789,14.411999702453613 C7.059000015258789,14.411999702453613 6.629000186920166,14.751999855041504 6.629000186920166,14.751999855041504 C6.629000186920166,14.751999855041504 6.629000186920166,14.751999855041504 6.629000186920166,14.751999855041504 C6.629000186920166,14.751999855041504 6.189000129699707,15.10200023651123 6.189000129699707,15.10200023651123 C6.189000129699707,15.10200023651123 6.189000129699707,15.10200023651123 6.189000129699707,15.10200023651123 C6.189000129699707,15.10200023651123 5.738999843597412,15.432000160217285 5.738999843597412,15.432000160217285 C2.86899995803833,17.531999588012695 -0.5910000205039978,19.062000274658203 -4.63100004196167,17.261999130249023 C-6.390999794006348,16.472000122070312 -8.220999717712402,15.522000312805176 -9.890999794006348,14.392000198364258 C-14.590999603271484,11.211999893188477 -16.801000595092773,4.622000217437744 -13.170999526977539,-1.6579999923706055 C-13.170999526977539,-1.6579999923706055 -5.181000232696533,-15.508000373840332 -5.181000232696533,-15.508000373840332 C-4.531000137329102,-16.628000259399414 -3.1010000705718994,-17.007999420166016 -1.9809999465942383,-16.357999801635742 C-0.8610000014305115,-15.718000411987305 -0.47099998593330383,-14.277999877929688 -1.121000051498413,-13.157999992370605 C-1.121000051498413,-13.157999992370605 -4.701000213623047,-6.958000183105469 -4.701000213623047,-6.958000183105469 C-4.701000213623047,-6.958000183105469 -5.290999889373779,-5.918000221252441 -5.290999889373779,-5.918000221252441 C-5.390999794006348,-5.728000164031982 -5.330999851226807,-5.48799991607666 -5.140999794006348,-5.377999782562256 C-4.991000175476074,-5.288000106811523 -4.790999889373779,-5.317999839782715 -4.671000003814697,-5.447999954223633 C-4.671000003814697,-5.447999954223633 1.9290000200271606,-16.88800048828125 1.9290000200271606,-16.88800048828125 C2.5789999961853027,-18.007999420166016 4.008999824523926,-18.38800048828125 5.129000186920166,-17.74799919128418 C6.249000072479248,-17.097999572753906 6.638999938964844,-15.668000221252441 5.988999843597412,-14.54800033569336 C5.988999843597412,-14.54800033569336 -0.5910000205039978,-3.1480000019073486 -0.5910000205039978,-3.1480000019073486 C-0.5910000205039978,-3.1480000019073486 -0.6010000109672546,-3.118000030517578 -0.6010000109672546,-3.118000030517578 C-0.6610000133514404,-2.947999954223633 -0.5910000205039978,-2.747999906539917 -0.42100000381469727,-2.6579999923706055 C-0.2409999966621399,-2.5480000972747803 -0.0010000000474974513,-2.618000030517578 0.10899999737739563,-2.7980000972747803 C0.10899999737739563,-2.7980000972747803 7.459000110626221,-15.527999877929688 7.459000110626221,-15.527999877929688 C8.109000205993652,-16.648000717163086 9.538999557495117,-17.027999877929688 10.659000396728516,-16.378000259399414 C11.779000282287598,-15.73799991607666 12.159000396728516,-14.29800033569336 11.519000053405762,-13.178000450134277 C11.519000053405762,-13.178000450134277 4.169000148773193,-0.4580000042915344 4.169000148773193,-0.4580000042915344z"></path></g></g><g transform="matrix(0.8191520571708679,-0.5735764503479004,0.5735764503479004,0.8191520571708679,42.382015228271484,36.360076904296875)" opacity="1" style="display: block;"><g opacity="1" transform="matrix(1,0,0,1,0,0)"><path fill="url(#__lottie_element_4873)" fill-opacity="1" d=" M1.1200000047683716,-1.4600000381469727 C1.1200000047683716,-1.25 1.2999999523162842,-1.0700000524520874 1.5099999904632568,-1.0700000524520874 C1.7300000190734863,-1.0700000524520874 1.899999976158142,-1.25 1.899999976158142,-1.4600000381469727 C1.899999976158142,-1.4600000381469727 1.899999976158142,-12.989999771118164 1.899999976158142,-12.989999771118164 C1.899999976158142,-14.279999732971191 2.950000047683716,-15.329999923706055 4.239999771118164,-15.329999923706055 C5.539999961853027,-15.329999923706055 6.590000152587891,-14.279999732971191 6.590000152587891,-12.989999771118164 C6.590000152587891,-12.989999771118164 6.590000152587891,0.6800000071525574 6.590000152587891,0.6800000071525574 C6.590000152587891,0.6800000071525574 6.590000152587891,0.7799999713897705 6.590000152587891,0.7799999713897705 C6.590000152587891,0.7799999713897705 6.590000152587891,0.7799999713897705 6.590000152587891,0.7799999713897705 C6.590000152587891,0.7799999713897705 6.579999923706055,0.8799999952316284 6.579999923706055,0.8799999952316284 C6.579999923706055,0.8799999952316284 6.579999923706055,3.4000000953674316 6.579999923706055,3.4000000953674316 C6.579999923706055,3.4000000953674316 6.579999923706055,3.4000000953674316 6.579999923706055,3.4000000953674316 C6.579999923706055,3.4000000953674316 6.590000152587891,3.690000057220459 6.590000152587891,3.690000057220459 C6.590000152587891,3.819999933242798 6.590000152587891,3.950000047683716 6.599999904632568,4.059999942779541 C6.599999904632568,4.059999942779541 6.610000133514404,4.400000095367432 6.610000133514404,4.400000095367432 C6.679999828338623,5.340000152587891 6.880000114440918,5.690000057220459 7.46999979019165,5.5 C7.579999923706055,5.46999979019165 7.679999828338623,5.289999961853027 7.769999980926514,5.010000228881836 C7.769999980926514,5.010000228881836 7.860000133514404,4.739999771118164 7.860000133514404,4.739999771118164 C7.860000133514404,4.739999771118164 7.860000133514404,4.739999771118164 7.860000133514404,4.739999771118164 C7.860000133514404,4.739999771118164 8.1899995803833,3.5199999809265137 8.1899995803833,3.5199999809265137 C8.1899995803833,3.5199999809265137 8.1899995803833,3.5199999809265137 8.1899995803833,3.5199999809265137 C8.1899995803833,3.5199999809265137 8.300000190734863,3.119999885559082 8.300000190734863,3.119999885559082 C8.319999694824219,3.049999952316284 8.34000015258789,2.9800000190734863 8.369999885559082,2.9100000858306885 C8.369999885559082,2.9100000858306885 8.5,2.490000009536743 8.5,2.490000009536743 C8.579999923706055,2.2799999713897705 8.65999984741211,2.069999933242798 8.75,1.8600000143051147 C9.359999656677246,0.41999998688697815 10.359999656677246,-0.8899999856948853 12.210000038146973,-0.8899999856948853 C14.3100004196167,-0.8899999856948853 14.84000015258789,0.5699999928474426 14.3100004196167,1.840000033378601 C14.25,1.9700000286102295 14.1899995803833,2.119999885559082 14.109999656677246,2.2799999713897705 C14.109999656677246,2.2799999713897705 13.739999771118164,3.059999942779541 13.739999771118164,3.059999942779541 C13.739999771118164,3.059999942779541 13.739999771118164,3.059999942779541 13.739999771118164,3.059999942779541 C13.739999771118164,3.059999942779541 13.449999809265137,3.640000104904175 13.449999809265137,3.640000104904175 C13.449999809265137,3.640000104904175 13.449999809265137,3.640000104904175 13.449999809265137,3.640000104904175 C13.449999809265137,3.640000104904175 13.15999984741211,4.260000228881836 13.15999984741211,4.260000228881836 C12.960000038146973,4.670000076293945 12.779999732971191,5.090000152587891 12.609999656677246,5.5 C12.609999656677246,5.5 12.460000038146973,5.909999847412109 12.460000038146973,5.909999847412109 C12.460000038146973,5.909999847412109 12.460000038146973,5.909999847412109 12.460000038146973,5.909999847412109 C12.460000038146973,5.909999847412109 12.229999542236328,6.550000190734863 12.229999542236328,6.550000190734863 C12.229999542236328,6.550000190734863 12.229999542236328,6.550000190734863 12.229999542236328,6.550000190734863 C12.229999542236328,6.550000190734863 11.510000228881836,8.6899995803833 11.510000228881836,8.6899995803833 C11.510000228881836,8.6899995803833 11.510000228881836,8.6899995803833 11.510000228881836,8.6899995803833 C11.510000228881836,8.6899995803833 11.239999771118164,9.449999809265137 11.239999771118164,9.449999809265137 C11.239999771118164,9.449999809265137 11.239999771118164,9.449999809265137 11.239999771118164,9.449999809265137 C11.239999771118164,9.449999809265137 11.0600004196167,9.970000267028809 11.0600004196167,9.970000267028809 C11.0600004196167,9.970000267028809 11.0600004196167,9.970000267028809 11.0600004196167,9.970000267028809 C11.0600004196167,9.970000267028809 10.859999656677246,10.479999542236328 10.859999656677246,10.479999542236328 C10.859999656677246,10.479999542236328 10.859999656677246,10.479999542236328 10.859999656677246,10.479999542236328 C10.859999656677246,10.479999542236328 10.649999618530273,11 10.649999618530273,11 C10.649999618530273,11 10.649999618530273,11 10.649999618530273,11 C10.649999618530273,11 10.430000305175781,11.510000228881836 10.430000305175781,11.510000228881836 C8.989999771118164,14.770000457763672 6.760000228881836,17.81999969482422 2.3499999046325684,18.280000686645508 C0.4399999976158142,18.479999542236328 -1.6200000047683716,18.56999969482422 -3.630000114440918,18.43000030517578 C-9.289999961853027,18.020000457763672 -14.5,13.420000076293945 -14.5,6.159999847412109 C-14.5,6.159999847412109 -14.5,-9.819999694824219 -14.5,-9.819999694824219 C-14.5,-11.109999656677246 -13.449999809265137,-12.15999984741211 -12.15999984741211,-12.15999984741211 C-10.859999656677246,-12.15999984741211 -9.8100004196167,-11.109999656677246 -9.8100004196167,-9.819999694824219 C-9.8100004196167,-9.819999694824219 -9.8100004196167,-2.6600000858306885 -9.8100004196167,-2.6600000858306885 C-9.8100004196167,-2.6600000858306885 -9.800000190734863,-1.4600000381469727 -9.800000190734863,-1.4600000381469727 C-9.800000190734863,-1.25 -9.619999885559082,-1.0700000524520874 -9.40999984741211,-1.0700000524520874 C-9.229999542236328,-1.0700000524520874 -9.069999694824219,-1.2000000476837158 -9.029999732971191,-1.3600000143051147 C-9.029999732971191,-1.3600000143051147 -9.029999732971191,-14.569999694824219 -9.029999732971191,-14.569999694824219 C-9.029999732971191,-15.869999885559082 -7.980000019073486,-16.920000076293945 -6.690000057220459,-16.920000076293945 C-5.400000095367432,-16.920000076293945 -4.349999904632568,-15.869999885559082 -4.349999904632568,-14.569999694824219 C-4.349999904632568,-14.569999694824219 -4.349999904632568,-1.4199999570846558 -4.349999904632568,-1.4199999570846558 C-4.349999904632568,-1.4199999570846558 -4.340000152587891,-1.3899999856948853 -4.340000152587891,-1.3899999856948853 C-4.309999942779541,-1.2100000381469727 -4.150000095367432,-1.0700000524520874 -3.9600000381469727,-1.0700000524520874 C-3.740000009536743,-1.0700000524520874 -3.569999933242798,-1.25 -3.569999933242798,-1.4600000381469727 C-3.569999933242798,-1.4600000381469727 -3.569999933242798,-16.15999984741211 -3.569999933242798,-16.15999984741211 C-3.569999933242798,-17.450000762939453 -2.5199999809265137,-18.5 -1.2200000286102295,-18.5 C0.07000000029802322,-18.5 1.1200000047683716,-17.450000762939453 1.1200000047683716,-16.15999984741211 C1.1200000047683716,-16.15999984741211 1.1200000047683716,-1.4600000381469727 1.1200000047683716,-1.4600000381469727z"></path></g></g></g></g></svg>