<svg xmlns="http://www.w3.org/2000/svg" viewBox="0 0 80 80" width="80" height="80" preserveAspectRatio="xMidYMid meet" style="width: 100%; height: 100%; transform: translate3d(0px, 0px, 0px);"><defs><clipPath id="__lottie_element_3540"><rect width="80" height="80" x="0" y="0"></rect></clipPath><clipPath id="__lottie_element_3543"><path d="M0,0 L80,0 L80,80 L0,80z"></path></clipPath><clipPath id="__lottie_element_3556"><path d="M0,0 L80,0 L80,80 L0,80z"></path></clipPath><clipPath id="__lottie_element_3572"><path d="M0,0 L64,0 L64,64 L0,64z"></path></clipPath><mask id="__lottie_element_3575" mask-type="alpha"><g transform="matrix(1,0,0,1,32,42)" opacity="1" style="display: block;"><g opacity="1" transform="matrix(0.800000011920929,0,0,0.8700000047683716,0,0)"></g><g opacity="1" transform="matrix(0.797819972038269,0,0,0.8500000238418579,0,-2.2328996658325195)"><path fill="rgb(24,34,66)" fill-opacity="1" d=" M-19.854999542236328,-8.305000305175781 C-19.935026168823242,-9.240470886230469 -19.244951248168945,-10 -18.314998626708984,-10 C-18.314998626708984,-10 -17.190000534057617,-10 -16.6299991607666,-10 C-12.109999656677246,-10 -6.510000228881836,-10 0.15000000596046448,-10 C5.079999923706055,-10 10.600000381469727,-10 16.709999084472656,-10 C17.260000228881836,-10 18.354999542236328,-10 18.354999542236328,-10 C19.262874603271484,-10 19.937265396118164,-9.244951248168945 19.860000610351562,-8.315000534057617 C19.860000610351562,-8.315000534057617 19.760000228881836,-6.860000133514404 19.719999313354492,-6.630000114440918 C18.1200008392334,2.809999942779541 9.899999618530273,10 0,10 C-9.720000267028809,10 -17.81999969482422,3.069999933242798 -19.6200008392334,-6.130000114440918 C-19.649999618530273,-6.269999980926514 -19.68000030517578,-6.429999828338623 -19.709999084472656,-6.610000133514404 C-19.770000457763672,-7.050000190734863 -19.854999542236328,-8.305000305175781 -19.854999542236328,-8.305000305175781z"></path></g></g></mask><clipPath id="__lottie_element_3585"><path d="M0,0 L64,0 L64,64 L0,64z"></path></clipPath><clipPath id="__lottie_element_3589"><path d="M0,0 L17,0 L17,13 L0,13z"></path></clipPath><clipPath id="__lottie_element_3596"><path d="M0,0 L17,0 L17,13 L0,13z"></path></clipPath><linearGradient id="__lottie_element_3605" spreadMethod="pad" gradientUnits="userSpaceOnUse" x1="0" y1="-3.8589999675750732" x2="0" y2="46.3380012512207"><stop offset="0%" stop-color="rgb(255,214,47)"></stop><stop offset="50%" stop-color="rgb(253,185,29)"></stop><stop offset="100%" stop-color="rgb(251,157,11)"></stop></linearGradient></defs><g clip-path="url(#__lottie_element_3540)"><g transform="matrix(1,0,0,1,39.99800109863281,39.75)" opacity="1" style="display: block;"><g opacity="1" transform="matrix(1,0,0,1,0,0)"><path fill="url(#__lottie_element_3605)" fill-opacity="1" d=" M30,0.49000000953674316 C29.760000228881836,26.15999984741211 20.850000381469727,28 0.07999999821186066,28 C-21.280000686645508,28 -30.34000015258789,25.6299991607666 -29.989999771118164,-0.699999988079071 C-29.65999984741211,-26.049999237060547 -20.920000076293945,-28 -0.33000001311302185,-28 C21.010000228881836,-28 30.239999771118164,-25.979999542236328 30,0.49000000953674316z"></path></g></g><g clip-path="url(#__lottie_element_3585)" transform="matrix(1,0,0,1,8,8.5)" opacity="1" style="display: block;"><g clip-path="url(#__lottie_element_3596)" transform="matrix(1,0,0,1,14,14)" opacity="1" style="display: block;"><g transform="matrix(1,0,0,1,7.5,6)" opacity="1" style="display: block;"><g opacity="1" transform="matrix(1,0,0,1,0,0)"><path stroke-linecap="round" stroke-linejoin="round" fill-opacity="0" stroke="rgb(24,34,66)" stroke-opacity="1" stroke-width="4" d=" M-3.5,-4 C-3.5,-4 3.5,-0.05000000074505806 3.5,-0.05000000074505806 C3.5,-0.05000000074505806 -3,4 -3,4"></path></g></g></g><g clip-path="url(#__lottie_element_3589)" transform="matrix(-1,0,0,1,50,14)" opacity="1" style="display: block;"><g transform="matrix(1,0,0,1,7.5,6)" opacity="1" style="display: block;"><g opacity="1" transform="matrix(1,0,0,1,0,0)"><path stroke-linecap="round" stroke-linejoin="round" fill-opacity="0" stroke="rgb(24,34,66)" stroke-opacity="1" stroke-width="4" d=" M-3.5,-4 C-3.5,-4 3.5,-0.05000000074505806 3.5,-0.05000000074505806 C3.5,-0.05000000074505806 -3,4 -3,4"></path></g></g></g></g><g clip-path="url(#__lottie_element_3572)" transform="matrix(1,0,0,1,8,8)" opacity="1" style="display: block;"><g transform="matrix(1,0,0,1,32,42)" opacity="1" style="display: block;"><g opacity="1" transform="matrix(0.800000011920929,0,0,0.8700000047683716,0,0)"></g><g opacity="1" transform="matrix(0.797819972038269,0,0,0.8500000238418579,0,-2.2328996658325195)"><path fill="rgb(24,34,66)" fill-opacity="1" d=" M-19.854999542236328,-8.305000305175781 C-19.935026168823242,-9.240470886230469 -19.244951248168945,-10 -18.314998626708984,-10 C-18.314998626708984,-10 -17.190000534057617,-10 -16.6299991607666,-10 C-12.109999656677246,-10 -6.510000228881836,-10 0.15000000596046448,-10 C5.079999923706055,-10 10.600000381469727,-10 16.709999084472656,-10 C17.260000228881836,-10 18.354999542236328,-10 18.354999542236328,-10 C19.262874603271484,-10 19.937265396118164,-9.244951248168945 19.860000610351562,-8.315000534057617 C19.860000610351562,-8.315000534057617 19.760000228881836,-6.860000133514404 19.719999313354492,-6.630000114440918 C18.1200008392334,2.809999942779541 9.899999618530273,10 0,10 C-9.720000267028809,10 -17.81999969482422,3.069999933242798 -19.6200008392334,-6.130000114440918 C-19.649999618530273,-6.269999980926514 -19.68000030517578,-6.429999828338623 -19.709999084472656,-6.610000133514404 C-19.770000457763672,-7.050000190734863 -19.854999542236328,-8.305000305175781 -19.854999542236328,-8.305000305175781z"></path></g></g><g mask="url(#__lottie_element_3575)" style="display: block;"><g transform="matrix(4.2840800285339355,0,0,3.1589701175689697,20.154518127441406,40.06047058105469)" opacity="1"><g opacity="1" transform="matrix(1,0,0,1,2.765000104904175,5.388000011444092)"><path fill="rgb(227,64,65)" fill-opacity="1" d=" M0,-4.888500213623047 C2.6295275688171387,-4.888500213623047 4.764500141143799,-2.697963237762451 4.764500141143799,0 C4.764500141143799,2.697963237762451 2.6295275688171387,4.888500213623047 0,4.888500213623047 C-2.6295275688171387,4.888500213623047 -4.764500141143799,2.697963237762451 -4.764500141143799,0 C-4.764500141143799,-2.697963237762451 -2.6295275688171387,-4.888500213623047 0,-4.888500213623047z"></path></g></g></g></g><g transform="matrix(0.8500000238418579,0,0,1,40,42.520999908447266)" opacity="1" style="display: block;"><g opacity="1" transform="matrix(1,0,0,1,0,0)"><path fill="rgb(255,255,255)" fill-opacity="1" d=" M-10,-3.3329999446868896 C-10,-3.3329999446868896 10,-3.3329999446868896 10,-3.3329999446868896 C10,-3.3329999446868896 10,1.6670000553131104 10,1.6670000553131104 C10,2.5869998931884766 9.25,3.3369998931884766 8.329999923706055,3.3369998931884766 C8.329999923706055,3.3369998931884766 -8.329999923706055,3.3369998931884766 -8.329999923706055,3.3369998931884766 C-9.25,3.3369998931884766 -10,2.5869998931884766 -10,1.6670000553131104 C-10,1.6670000553131104 -10,-3.3329999446868896 -10,-3.3329999446868896z"></path></g></g><g clip-path="url(#__lottie_element_3556)" transform="matrix(1,0,0,1,-0.5,13.706001281738281)" opacity="1" style="display: block;"><g style="display: none;"><g><path></path></g></g><g style="display: none;"><g><path></path></g></g><g style="display: none;"><g><path></path></g></g></g><g clip-path="url(#__lottie_element_3543)" transform="matrix(-1,0,0,1,80.5,13.706001281738281)" opacity="1" style="display: block;"><g style="display: none;"><g><path></path></g></g><g style="display: none;"><g><path></path></g></g><g style="display: none;"><g><path></path></g></g></g></g></svg>