<svg xmlns="http://www.w3.org/2000/svg" viewBox="0 0 80 80" width="80" height="80" preserveAspectRatio="xMidYMid meet" style="width: 100%; height: 100%; transform: translate3d(0px, 0px, 0px);"><defs><clipPath id="__lottie_element_4762"><rect width="80" height="80" x="0" y="0"></rect></clipPath><linearGradient id="__lottie_element_4769" spreadMethod="pad" gradientUnits="userSpaceOnUse" x1="0" y1="-28" x2="0" y2="28"><stop offset="0%" stop-color="rgb(243,116,118)"></stop><stop offset="50%" stop-color="rgb(235,90,92)"></stop><stop offset="100%" stop-color="rgb(227,64,65)"></stop></linearGradient></defs><g clip-path="url(#__lottie_element_4762)"><g transform="matrix(1,0,0,1,40,40)" opacity="1" style="display: block;"><g opacity="1" transform="matrix(1,0,0,1,0,0)"><path fill="url(#__lottie_element_4769)" fill-opacity="1" d=" M30,0.49000000953674316 C29.760000228881836,26.15999984741211 20.850000381469727,28 0.07999999821186066,28 C-21.280000686645508,28 -30.34000015258789,25.6299991607666 -29.989999771118164,-0.699999988079071 C-29.65999984741211,-26.049999237060547 -20.920000076293945,-28 -0.33000001311302185,-28 C21.010000228881836,-28 30.239999771118164,-25.979999542236328 30,0.49000000953674316z"></path></g></g><g transform="matrix(1,0,0,1,40,42)" opacity="1" style="display: block;"><g opacity="1" transform="matrix(1,0,0,1,0,0)"><path fill="rgb(255,255,255)" fill-opacity="1" d=" M-9.5,-16 C-13.470000267028809,-16 -19,-12.5 -19,-4.960000038146973 C-19,3.0899999141693115 -8.380000114440918,11.029999732971191 0,16 C8.380000114440918,11.029999732971191 19,3.0899999141693115 19,-4.960000038146973 C19,-12.5 13.470000267028809,-16 9.5,-16 C4.559999942779541,-16 1.6799999475479126,-13.569999694824219 0,-10.8100004196167 C-1.6799999475479126,-13.569999694824219 -4.559999942779541,-16 -9.5,-16z"></path></g></g></g></svg>