<svg xmlns="http://www.w3.org/2000/svg" viewBox="0 0 80 80" width="80" height="80" preserveAspectRatio="xMidYMid meet" style="width: 100%; height: 100%; transform: translate3d(0px, 0px, 0px);"><defs><clipPath id="__lottie_element_5428"><rect width="80" height="80" x="0" y="0"></rect></clipPath><clipPath id="__lottie_element_5433"><path d="M0,0 L80,0 L80,80 L0,80z"></path></clipPath><mask id="__lottie_element_5440" mask-type="alpha"><g transform="matrix(1,0,0,1,39.5,38.5)" opacity="1" style="display: block;"><g opacity="1" transform="matrix(1,0,0,1,-0.9430000185966492,8.307000160217285)"><path fill="url(#__lottie_element_5443)" fill-opacity="1" d=" M0,-8.056500434875488 C4.446382522583008,-8.056500434875488 8.056500434875488,-4.446382522583008 8.056500434875488,0 C8.056500434875488,4.446382522583008 4.446382522583008,8.056500434875488 0,8.056500434875488 C-4.446382522583008,8.056500434875488 -8.056500434875488,4.446382522583008 -8.056500434875488,0 C-8.056500434875488,-4.446382522583008 -4.446382522583008,-8.056500434875488 0,-8.056500434875488z"></path><path stroke-linecap="butt" stroke-linejoin="miter" fill-opacity="0" stroke-miterlimit="4" stroke="rgb(255,255,255)" stroke-opacity="1" stroke-width="0" d=" M0,-8.056500434875488 C4.446382522583008,-8.056500434875488 8.056500434875488,-4.446382522583008 8.056500434875488,0 C8.056500434875488,4.446382522583008 4.446382522583008,8.056500434875488 0,8.056500434875488 C-4.446382522583008,8.056500434875488 -8.056500434875488,4.446382522583008 -8.056500434875488,0 C-8.056500434875488,-4.446382522583008 -4.446382522583008,-8.056500434875488 0,-8.056500434875488z"></path></g></g></mask><linearGradient id="__lottie_element_5443" spreadMethod="pad" gradientUnits="userSpaceOnUse" x1="0" y1="0" x2="100" y2="0"><stop offset="0%" stop-color="rgb(255,47,246)"></stop><stop offset="50%" stop-color="rgb(253,102,129)"></stop><stop offset="100%" stop-color="rgb(251,157,11)"></stop></linearGradient><mask id="__lottie_element_5436" mask-type="alpha"><g transform="matrix(1,0,0,1,38.709999084472656,46.77000045776367)" opacity="1" style="display: block;"><path fill="rgb(255,0,0)" fill-opacity="1" d=" M-1.9539999961853027,4.052999973297119 C-6.24399995803833,3.243000030517578 -6.064000129699707,-2.2669999599456787 -5.823999881744385,-3.3269999027252197 C-5.584000110626221,-4.396999835968018 -5.004000186920166,-4.396999835968018 -4.013999938964844,-3.937000036239624 C-3.0739998817443848,-3.506999969482422 -1.9539999961853027,-3.0969998836517334 0.026000000536441803,-2.7669999599456787 C2.0160000324249268,-2.437000036239624 3.6059999465942383,-2.5269999504089355 4.8460001945495605,-2.7170000076293945 C6.0960001945495605,-2.9170000553131104 5.955999851226807,-1.8070000410079956 5.866000175476074,-1.2669999599456787 C5.866000175476074,-1.2669999599456787 5.855999946594238,-1.2070000171661377 5.855999946594238,-1.2070000171661377 C4.946000099182129,2.802999973297119 2.3259999752044678,4.86299991607666 -1.9539999961853027,4.052999973297119z"></path><g opacity="1" transform="matrix(1,0,0,1,0,0)"><path fill="rgb(24,34,66)" fill-opacity="1" d=" M-1.9539999961853027,4.052999973297119 C-6.24399995803833,3.243000030517578 -6.064000129699707,-2.2669999599456787 -5.823999881744385,-3.3269999027252197 C-5.584000110626221,-4.396999835968018 -5.004000186920166,-4.396999835968018 -4.013999938964844,-3.937000036239624 C-3.0739998817443848,-3.506999969482422 -1.9539999961853027,-3.0969998836517334 0.026000000536441803,-2.7669999599456787 C2.0160000324249268,-2.437000036239624 3.6059999465942383,-2.5269999504089355 4.8460001945495605,-2.7170000076293945 C6.0960001945495605,-2.9170000553131104 5.955999851226807,-1.8070000410079956 5.866000175476074,-1.2669999599456787 C5.866000175476074,-1.2669999599456787 5.855999946594238,-1.2070000171661377 5.855999946594238,-1.2070000171661377 C4.946000099182129,2.802999973297119 2.3259999752044678,4.86299991607666 -1.9539999961853027,4.052999973297119z"></path></g></g></mask><clipPath id="__lottie_element_5453"><path d="M0,0 L12,0 L12,12 L0,12z"></path></clipPath><clipPath id="__lottie_element_5466"><path d="M0,0 L12,0 L12,12 L0,12z"></path></clipPath><linearGradient id="__lottie_element_5478" spreadMethod="pad" gradientUnits="userSpaceOnUse" x1="0" y1="-3.8589999675750732" x2="0" y2="46.3380012512207"><stop offset="0%" stop-color="rgb(255,214,47)"></stop><stop offset="50%" stop-color="rgb(253,185,29)"></stop><stop offset="100%" stop-color="rgb(251,157,11)"></stop></linearGradient></defs><g clip-path="url(#__lottie_element_5428)"><g transform="matrix(1,0,0,1,39.99800109863281,40)" opacity="1" style="display: block;"><g opacity="1" transform="matrix(1,0,0,1,0,0)"><path fill="url(#__lottie_element_5478)" fill-opacity="1" d=" M30,0.49000000953674316 C29.760000228881836,26.15999984741211 20.850000381469727,28 0.07999999821186066,28 C-21.280000686645508,28 -30.34000015258789,25.6299991607666 -29.989999771118164,-0.699999988079071 C-29.65999984741211,-26.049999237060547 -20.920000076293945,-28 -0.33000001311302185,-28 C21.010000228881836,-28 30.239999771118164,-25.979999542236328 30,0.49000000953674316z"></path></g></g><g clip-path="url(#__lottie_element_5466)" transform="matrix(1.1666699647903442,0,0,1.1666699647903442,44.99998092651367,27.8809814453125)" opacity="1" style="display: block;"><g transform="matrix(1,0,0,1,6,6)" opacity="1" style="display: block;"><g opacity="1" transform="matrix(1,0,0,1,0,0)"><path fill="rgb(24,34,66)" fill-opacity="1" d=" M0,-6 C3.3113999366760254,-6 6,-3.3113999366760254 6,0 C6,3.3113999366760254 3.3113999366760254,6 0,6 C-3.3113999366760254,6 -6,3.3113999366760254 -6,0 C-6,-3.3113999366760254 -3.3113999366760254,-6 0,-6z"></path></g></g><g transform="matrix(1,0,0,1,5,4)" opacity="1" style="display: block;"><g opacity="1" transform="matrix(1,0,0,1,0,0)"><path fill="rgb(255,255,255)" fill-opacity="1" d=" M0,-2 C1.1038000583648682,-2 2,-1.1038000583648682 2,0 C2,1.1038000583648682 1.1038000583648682,2 0,2 C-1.1038000583648682,2 -2,1.1038000583648682 -2,0 C-2,-1.1038000583648682 -1.1038000583648682,-2 0,-2z"></path></g></g></g><g transform="matrix(1,0,0,1,56.94599914550781,23.554000854492188)" opacity="1" style="display: block;"><g opacity="1" transform="matrix(0.7986354827880859,0.6018150448799133,-0.6018150448799133,0.7986354827880859,0,0)"><path fill="rgb(203,123,76)" fill-opacity="1" d=" M-4.672999858856201,-2.2079999446868896 C3.367000102996826,-5.607999801635742 6.927000045776367,-4.208000183105469 8.906999588012695,1.6419999599456787 C6.057000160217285,0.5120000243186951 5.10699987411499,-0.2980000078678131 2.5869998931884766,-0.27799999713897705 C0.05700000002980232,-0.257999986410141 -3.372999906539917,2.2219998836517334 -5.013000011444092,3.4519999027252197 C-7.0229997634887695,4.961999893188477 -8.833000183105469,3.242000102996826 -8.902999877929688,1.3819999694824219 C-8.95300006866455,-0.03799999877810478 -5.9629998207092285,-1.6579999923706055 -4.672999858856201,-2.2079999446868896z"></path></g></g><g clip-path="url(#__lottie_element_5453)" transform="matrix(1.1666699647903442,0,0,1.1666699647903442,22.753978729248047,21.999980926513672)" opacity="1" style="display: block;"><g transform="matrix(1,0,0,1,6,6)" opacity="1" style="display: block;"><g opacity="1" transform="matrix(1,0,0,1,0,0)"><path fill="rgb(24,34,66)" fill-opacity="1" d=" M0,-6 C3.3113999366760254,-6 6,-3.3113999366760254 6,0 C6,3.3113999366760254 3.3113999366760254,6 0,6 C-3.3113999366760254,6 -6,3.3113999366760254 -6,0 C-6,-3.3113999366760254 -3.3113999366760254,-6 0,-6z"></path></g></g><g transform="matrix(1,0,0,1,5,4)" opacity="1" style="display: block;"><g opacity="1" transform="matrix(1,0,0,1,0,0)"><path fill="rgb(255,255,255)" fill-opacity="1" d=" M0,-2 C1.1038000583648682,-2 2,-1.1038000583648682 2,0 C2,1.1038000583648682 1.1038000583648682,2 0,2 C-1.1038000583648682,2 -2,1.1038000583648682 -2,0 C-2,-1.1038000583648682 -1.1038000583648682,-2 0,-2z"></path></g></g></g><g transform="matrix(1,0,0,1,29,16)" opacity="1" style="display: block;"><g opacity="1" transform="matrix(0.9612616896629333,-0.27563735842704773,0.27563735842704773,0.9612616896629333,0,0)"><path fill="rgb(203,123,76)" fill-opacity="1" d=" M4.789999961853027,3.2699999809265137 C4.789999961853027,3.2699999809265137 7.96999979019165,7.679999828338623 10.359999656677246,4.960000038146973 C11.800000190734863,3.319999933242798 10.430000305175781,1.9299999475479126 9.9399995803833,1.2899999618530273 C8.1899995803833,-0.9900000095367432 2.819999933242798,-6 -1.9199999570846558,-6 C-7.190000057220459,-6 -9.039999961853027,-3.799999952316284 -10.479999542236328,-1.5 C-10.960000038146973,-0.7400000095367432 -11.520000457763672,0.5799999833106995 -10.0600004196167,-0.36000001430511475 C-7.889999866485596,-1.7699999809265137 -4.920000076293945,-3.259999990463257 -1.0199999809265137,-1.7300000190734863 C2.2699999809265137,-0.44999998807907104 4.789999961853027,3.2699999809265137 4.789999961853027,3.2699999809265137z"></path></g></g><g clip-path="url(#__lottie_element_5433)" transform="matrix(1,0,0,1,0,0)" opacity="1" style="display: block;"><g mask="url(#__lottie_element_5440)" style="display: block;"><g transform="matrix(1,0,0,1,38.709999084472656,46.77000045776367)" opacity="1"><g opacity="1" transform="matrix(1,0,0,1,0,0)"><path fill="rgb(24,34,66)" fill-opacity="1" d=" M-1.9539999961853027,4.052999973297119 C-6.24399995803833,3.243000030517578 -6.064000129699707,-2.2669999599456787 -5.823999881744385,-3.3269999027252197 C-5.584000110626221,-4.396999835968018 -5.004000186920166,-4.396999835968018 -4.013999938964844,-3.937000036239624 C-3.0739998817443848,-3.506999969482422 -1.9539999961853027,-3.0969998836517334 0.026000000536441803,-2.7669999599456787 C2.0160000324249268,-2.437000036239624 3.6059999465942383,-2.5269999504089355 4.8460001945495605,-2.7170000076293945 C6.0960001945495605,-2.9170000553131104 5.955999851226807,-1.8070000410079956 5.866000175476074,-1.2669999599456787 C5.866000175476074,-1.2669999599456787 5.855999946594238,-1.2070000171661377 5.855999946594238,-1.2070000171661377 C4.946000099182129,2.802999973297119 2.3259999752044678,4.86299991607666 -1.9539999961853027,4.052999973297119z"></path></g></g></g><g mask="url(#__lottie_element_5436)" style="display: block;"><g transform="matrix(1,0,0,1,39,51.5)" opacity="1"><g opacity="1" transform="matrix(1,0,0,1,0,0)"><path fill="rgb(227,64,65)" fill-opacity="1" d=" M0.3499999940395355,-3.5 C3.9200000762939453,-3.5 7.239999771118164,-2.4600000381469727 10,-0.6600000262260437 C7.389999866485596,1.909999966621399 3.759999990463257,3.5 -0.25,3.5 C-4.010000228881836,3.5 -7.429999828338623,2.0999999046325684 -10,-0.1899999976158142 C-7.110000133514404,-2.2699999809265137 -3.5299999713897705,-3.5 0.3499999940395355,-3.5z"></path></g></g></g></g><g transform="matrix(1,0,0,1,34.922000885009766,61.586997985839844)" opacity="1" style="display: block;"><g opacity="1" transform="matrix(1,0,0,1,0,0)"><path fill="rgb(203,123,76)" fill-opacity="1" d=" M13.277000427246094,-6.361000061035156 C13.107000350952148,-7.310999870300293 12.206999778747559,-7.940999984741211 11.256999969482422,-7.781000137329102 C11.196999549865723,-7.761000156402588 11.126999855041504,-7.750999927520752 11.067000389099121,-7.730999946594238 C11.067000389099121,-7.730999946594238 -1.5829999446868896,-4.011000156402588 -1.5829999446868896,-4.011000156402588 C-1.652999997138977,-3.990999937057495 -1.7230000495910645,-3.9609999656677246 -1.7929999828338623,-3.930999994277954 C-1.7929999828338623,-3.930999994277954 -2.382999897003174,-3.811000108718872 -2.382999897003174,-3.811000108718872 C-2.382999897003174,-3.811000108718872 -2.382999897003174,-3.811000108718872 -2.382999897003174,-3.811000108718872 C-2.382999897003174,-3.811000108718872 -2.7330000400543213,-3.750999927520752 -2.7330000400543213,-3.750999927520752 C-3.433000087738037,-3.63100004196167 -3.9030001163482666,-3.6610000133514404 -4.3429999351501465,-4.120999813079834 C-4.703000068664551,-4.500999927520752 -4.7729997634887695,-4.830999851226807 -4.7129998207092285,-5.250999927520752 C-4.7129998207092285,-5.250999927520752 -4.683000087738037,-5.451000213623047 -4.683000087738037,-5.451000213623047 C-4.683000087738037,-5.451000213623047 -4.683000087738037,-5.451000213623047 -4.683000087738037,-5.451000213623047 C-4.683000087738037,-5.451000213623047 -4.632999897003174,-5.660999774932861 -4.632999897003174,-5.660999774932861 C-4.632999897003174,-5.660999774932861 -4.632999897003174,-5.660999774932861 -4.632999897003174,-5.660999774932861 C-4.632999897003174,-5.660999774932861 -4.433000087738037,-6.410999774932861 -4.433000087738037,-6.410999774932861 C-4.433000087738037,-6.410999774932861 -4.433000087738037,-6.410999774932861 -4.433000087738037,-6.410999774932861 C-4.433000087738037,-6.410999774932861 -4.373000144958496,-6.701000213623047 -4.373000144958496,-6.701000213623047 C-4.373000144958496,-6.701000213623047 -4.373000144958496,-6.701000213623047 -4.373000144958496,-6.701000213623047 C-4.373000144958496,-6.701000213623047 -4.302999973297119,-7.031000137329102 -4.302999973297119,-7.031000137329102 C-4.2829999923706055,-7.140999794006348 -4.263000011444092,-7.250999927520752 -4.252999782562256,-7.38100004196167 C-4.252999782562256,-7.38100004196167 -4.203000068664551,-7.761000156402588 -4.203000068664551,-7.761000156402588 C-4.132999897003174,-8.560999870300293 -4.1529998779296875,-9.571000099182129 -4.39300012588501,-10.880999565124512 C-4.802999973297119,-13.130999565124512 -7.552999973297119,-14.531000137329102 -9.253000259399414,-12.451000213623047 C-9.42300033569336,-12.241000175476074 -9.42300033569336,-11.831000328063965 -9.36299991607666,-11.291000366210938 C-9.36299991607666,-11.291000366210938 -9.322999954223633,-10.91100025177002 -9.322999954223633,-10.91100025177002 C-9.322999954223633,-10.91100025177002 -9.322999954223633,-10.91100025177002 -9.322999954223633,-10.91100025177002 C-9.322999954223633,-10.91100025177002 -9.232999801635742,-10.281000137329102 -9.232999801635742,-10.281000137329102 C-9.232999801635742,-10.281000137329102 -9.232999801635742,-10.281000137329102 -9.232999801635742,-10.281000137329102 C-9.232999801635742,-10.281000137329102 -9.182999610900879,-9.821000099182129 -9.182999610900879,-9.821000099182129 C-9.093000411987305,-8.970999717712402 -9.062999725341797,-8.01099967956543 -9.303000450134277,-7.071000099182129 C-9.593000411987305,-5.9710001945495605 -10.032999992370605,-5.190999984741211 -10.532999992370605,-4.480999946594238 C-10.532999992370605,-4.480999946594238 -10.833000183105469,-4.060999870300293 -10.833000183105469,-4.060999870300293 C-10.833000183105469,-4.060999870300293 -10.833000183105469,-4.060999870300293 -10.833000183105469,-4.060999870300293 C-10.833000183105469,-4.060999870300293 -11.482999801635742,-3.180999994277954 -11.482999801635742,-3.180999994277954 C-11.482999801635742,-3.180999994277954 -11.482999801635742,-3.180999994277954 -11.482999801635742,-3.180999994277954 C-11.482999801635742,-3.180999994277954 -11.692999839782715,-2.8910000324249268 -11.692999839782715,-2.8910000324249268 C-11.692999839782715,-2.8910000324249268 -11.692999839782715,-2.8910000324249268 -11.692999839782715,-2.8910000324249268 C-11.692999839782715,-2.8910000324249268 -11.892999649047852,-2.5810000896453857 -11.892999649047852,-2.5810000896453857 C-12.642999649047852,-1.430999994277954 -13.253000259399414,0.008999999612569809 -13.352999687194824,2.559000015258789 C-13.413000106811523,4.11899995803833 -13.17300033569336,5.939000129699707 -12.602999687194824,7.479000091552734 C-10.642999649047852,12.859000205993652 -5.543000221252441,14.619000434875488 2.687000036239624,12.74899959564209 C2.687000036239624,12.74899959564209 2.687000036239624,12.73900032043457 2.687000036239624,12.73900032043457 C2.687000036239624,12.73900032043457 3.2669999599456787,12.579000473022461 3.2669999599456787,12.579000473022461 C3.877000093460083,12.418999671936035 4.4670000076293945,12.23900032043457 5.066999912261963,12.038999557495117 C5.916999816894531,11.74899959564209 6.456999778747559,10.89900016784668 6.367000102996826,10.008999824523926 C6.367000102996826,10.008999824523926 6.336999893188477,9.788999557495117 6.336999893188477,9.788999557495117 C6.236999988555908,8.829000473022461 5.396999835968018,8.128999710083008 4.447000026702881,8.208999633789062 C4.447000026702881,8.208999633789062 3.296999931335449,8.298999786376953 3.296999931335449,8.298999786376953 C3.296999931335449,8.298999786376953 5.997000217437744,7.598999977111816 5.997000217437744,7.598999977111816 C6.927000045776367,7.359000205993652 7.5269999504089355,6.459000110626221 7.376999855041504,5.508999824523926 C7.236999988555908,4.559000015258789 6.396999835968018,3.8889999389648438 5.436999797821045,3.9489998817443848 C5.436999797821045,3.9489998817443848 3.5269999504089355,4.078999996185303 3.5269999504089355,4.078999996185303 C3.5269999504089355,4.078999996185303 6.267000198364258,3.1589999198913574 6.267000198364258,3.1589999198913574 C7.367000102996826,2.7890000343322754 8.04699993133545,1.6990000009536743 7.896999835968018,0.5490000247955322 C7.767000198364258,-0.4410000145435333 6.896999835968018,-1.1510000228881836 5.916999816894531,-1.1009999513626099 C5.916999816894531,-1.1009999513626099 5.7170000076293945,-1.0809999704360962 5.7170000076293945,-1.0809999704360962 C5.7170000076293945,-1.0809999704360962 5.7170000076293945,-1.0809999704360962 5.7170000076293945,-1.0809999704360962 C5.7170000076293945,-1.0809999704360962 3.2269999980926514,-0.6309999823570251 3.2269999980926514,-0.6309999823570251 C3.2269999980926514,-0.6309999823570251 12.097000122070312,-3.8910000324249268 12.097000122070312,-3.8910000324249268 C12.97700023651123,-4.210999965667725 13.496999740600586,-5.111000061035156 13.336999893188477,-6.031000137329102 C13.336999893188477,-6.031000137329102 13.277000427246094,-6.361000061035156 13.277000427246094,-6.361000061035156z"></path></g></g></g></svg>