<svg xmlns="http://www.w3.org/2000/svg" viewBox="0 0 80 80" width="80" height="80" preserveAspectRatio="xMidYMid meet" style="width: 100%; height: 100%; transform: translate3d(0px, 0px, 0px);"><defs><clipPath id="__lottie_element_4423"><rect width="80" height="80" x="0" y="0"></rect></clipPath><clipPath id="__lottie_element_4425"><path d="M0,0 L24,0 L24,24 L0,24z"></path></clipPath><mask id="__lottie_element_4426"><path fill="#ffffff" clip-rule="nonzero" d=" M11.883000373840332,1.9620000123977661 C6.340000152587891,1.9620000123977661 1.8459999561309814,6.454999923706055 1.8459999561309814,11.998000144958496 C1.8459999561309814,17.541000366210938 6.340000152587891,22.03499984741211 11.883000373840332,22.03499984741211 C17.426000595092773,22.03499984741211 21.91900062561035,17.541000366210938 21.91900062561035,11.998000144958496 C21.91900062561035,6.454999923706055 17.426000595092773,1.9620000123977661 11.883000373840332,1.9620000123977661" fill-opacity="1"></path></mask><clipPath id="__lottie_element_4435"><path d="M0,0 L24,0 L24,24 L0,24z"></path></clipPath><mask id="__lottie_element_4436"><path fill="#ffffff" clip-rule="nonzero" d=" M11.883000373840332,1.9620000123977661 C6.340000152587891,1.9620000123977661 1.8459999561309814,6.454999923706055 1.8459999561309814,11.998000144958496 C1.8459999561309814,17.541000366210938 6.340000152587891,22.03499984741211 11.883000373840332,22.03499984741211 C17.426000595092773,22.03499984741211 21.91900062561035,17.541000366210938 21.91900062561035,11.998000144958496 C21.91900062561035,6.454999923706055 17.426000595092773,1.9620000123977661 11.883000373840332,1.9620000123977661" fill-opacity="0.99"></path></mask><clipPath id="__lottie_element_4445"><path d="M0,0 L48,0 L48,48 L0,48z"></path></clipPath><mask id="__lottie_element_4448" mask-type="alpha"><g transform="matrix(0.9163399934768677,0,0,0.9326199889183044,24.014724731445312,24.150997161865234)" opacity="1" style="display: block;"><g opacity="1" transform="matrix(0.8210099935531616,0,0,1.0878700017929077,-0.11999999731779099,2.130000114440918)"><path fill="rgb(227,64,65)" fill-opacity="1" d=" M0,-10.12635326385498 C8.896618843078613,-10.12635326385498 16.119983673095703,-5.588734149932861 16.119983673095703,0 C16.119983673095703,5.588734149932861 8.896618843078613,10.12635326385498 0,10.12635326385498 C-8.896618843078613,10.12635326385498 -16.119983673095703,5.588734149932861 -16.119983673095703,0 C-16.119983673095703,-5.588734149932861 -8.896618843078613,-10.12635326385498 0,-10.12635326385498z"></path></g></g></mask><linearGradient id="__lottie_element_4460" spreadMethod="pad" gradientUnits="userSpaceOnUse" x1="0" y1="-3.8589999675750732" x2="0" y2="46.3380012512207"><stop offset="0%" stop-color="rgb(255,214,47)"></stop><stop offset="50%" stop-color="rgb(253,185,29)"></stop><stop offset="100%" stop-color="rgb(251,157,11)"></stop></linearGradient></defs><g clip-path="url(#__lottie_element_4423)"><g transform="matrix(1,0,0,1,40,40)" opacity="1" style="display: block;"><g opacity="1" transform="matrix(1,0,0,1,0,0)"><path fill="url(#__lottie_element_4460)" fill-opacity="1" d=" M30,0.49000000953674316 C29.760000228881836,26.15999984741211 20.850000381469727,28 0.07999999821186066,28 C-21.280000686645508,28 -30.34000015258789,25.6299991607666 -29.989999771118164,-0.699999988079071 C-29.65999984741211,-26.049999237060547 -20.920000076293945,-28 -0.33000001311302185,-28 C21.010000228881836,-28 30.239999771118164,-25.979999542236328 30,0.49000000953674316z"></path></g></g><g clip-path="url(#__lottie_element_4445)" transform="matrix(1,0,0,1,16,26)" opacity="1" style="display: block;"><g transform="matrix(0.9163399934768677,0,0,0.9326199889183044,24.014724731445312,24.150997161865234)" opacity="1" style="display: block;"><g opacity="1" transform="matrix(0.8210099935531616,0,0,1.0878700017929077,-0.11999999731779099,2.130000114440918)"><path fill="rgb(24,33,66)" fill-opacity="1" d=" M0,-10.12635326385498 C8.896618843078613,-10.12635326385498 16.119983673095703,-5.588734149932861 16.119983673095703,0 C16.119983673095703,5.588734149932861 8.896618843078613,10.12635326385498 0,10.12635326385498 C-8.896618843078613,10.12635326385498 -16.119983673095703,5.588734149932861 -16.119983673095703,0 C-16.119983673095703,-5.588734149932861 -8.896618843078613,-10.12635326385498 0,-10.12635326385498z"></path></g></g><g mask="url(#__lottie_element_4448)" style="display: block;"><g transform="matrix(1.7949999570846558,0,0,1.2888599634170532,19.107824325561523,29.988719940185547)" opacity="1"><g opacity="1" transform="matrix(1,0,0,1,2.765000104904175,5.388000011444092)"><path fill="rgb(227,64,65)" fill-opacity="1" d=" M0,-4.888500213623047 C2.6295275688171387,-4.888500213623047 4.764500141143799,-2.697963237762451 4.764500141143799,0 C4.764500141143799,2.697963237762451 2.6295275688171387,4.888500213623047 0,4.888500213623047 C-2.6295275688171387,4.888500213623047 -4.764500141143799,2.697963237762451 -4.764500141143799,0 C-4.764500141143799,-2.697963237762451 -2.6295275688171387,-4.888500213623047 0,-4.888500213623047z"></path></g></g></g></g><g clip-path="url(#__lottie_element_4435)" transform="matrix(1.0833300352096558,0,0,1.0833300352096558,13.000040054321289,20.00004005432129)" opacity="1" style="display: block;"><g mask="url(#__lottie_element_4436)"><g transform="matrix(1,0,0,1,12,12)" opacity="1" style="display: block;"><g opacity="1" transform="matrix(1,0,0,1,0,0)"><path fill="rgb(24,34,66)" fill-opacity="1" d=" M0,-9 C4.967100143432617,-9 9,-4.967100143432617 9,0 C9,4.967100143432617 4.967100143432617,9 0,9 C-4.967100143432617,9 -9,4.967100143432617 -9,0 C-9,-4.967100143432617 -4.967100143432617,-9 0,-9z"></path></g></g><g transform="matrix(0.8999999761581421,0,0,0.8999999761581421,14.534503936767578,10.056456565856934)" opacity="1" style="display: block;"><g opacity="1" transform="matrix(1,0,0,1,0,0)"><path fill="rgb(255,255,255)" fill-opacity="1" d=" M0,-3.5 C1.9316500425338745,-3.5 3.5,-1.9316500425338745 3.5,0 C3.5,1.9316500425338745 1.9316500425338745,3.5 0,3.5 C-1.9316500425338745,3.5 -3.5,1.9316500425338745 -3.5,0 C-3.5,-1.9316500425338745 -1.9316500425338745,-3.5 0,-3.5z"></path></g></g></g></g><g clip-path="url(#__lottie_element_4425)" transform="matrix(1.0833300352096558,0,0,1.0833300352096558,41.000038146972656,20.00004005432129)" opacity="1" style="display: block;"><g mask="url(#__lottie_element_4426)"><g transform="matrix(1,0,0,1,12,12)" opacity="1" style="display: block;"><g opacity="1" transform="matrix(1,0,0,1,0,0)"><path fill="rgb(24,34,66)" fill-opacity="1" d=" M0,-9 C4.967100143432617,-9 9,-4.967100143432617 9,0 C9,4.967100143432617 4.967100143432617,9 0,9 C-4.967100143432617,9 -9,4.967100143432617 -9,0 C-9,-4.967100143432617 -4.967100143432617,-9 0,-9z"></path></g></g><g transform="matrix(0.8999999761581421,0,0,0.8999999761581421,14.534503936767578,10.056456565856934)" opacity="1" style="display: block;"><g opacity="1" transform="matrix(1,0,0,1,0,0)"><path fill="rgb(255,255,255)" fill-opacity="1" d=" M0,-3.5 C1.9316500425338745,-3.5 3.5,-1.9316500425338745 3.5,0 C3.5,1.9316500425338745 1.9316500425338745,3.5 0,3.5 C-1.9316500425338745,3.5 -3.5,1.9316500425338745 -3.5,0 C-3.5,-1.9316500425338745 -1.9316500425338745,-3.5 0,-3.5z"></path></g></g></g></g></g></svg>